<mxfile host="app.diagrams.net" modified="2021-03-27T12:58:46.094Z" agent="5.0 (Windows NT 10.0; Win64; x64) AppleWebKit/537.36 (KHTML, like Gecko) Chrome/88.0.4324.104 Safari/537.36" etag="qyw-MEtzK90DTygQjLB3" version="14.5.1" type="github">
  <diagram id="Ol0ja13ztxvOmEabCfbo" name="第 1 页">
    <mxGraphModel dx="870" dy="595" grid="1" gridSize="10" guides="1" tooltips="1" connect="1" arrows="1" fold="1" page="1" pageScale="1" pageWidth="827" pageHeight="1169" math="0" shadow="0">
      <root>
        <mxCell id="0" />
        <mxCell id="1" parent="0" />
        <mxCell id="ul2OTpSgafdYvR5JcjuC-8" style="edgeStyle=orthogonalEdgeStyle;rounded=0;orthogonalLoop=1;jettySize=auto;html=1;exitX=0.5;exitY=1;exitDx=0;exitDy=0;entryX=0.5;entryY=0;entryDx=0;entryDy=0;" edge="1" parent="1" source="ul2OTpSgafdYvR5JcjuC-4" target="ul2OTpSgafdYvR5JcjuC-5">
          <mxGeometry relative="1" as="geometry" />
        </mxCell>
        <mxCell id="ul2OTpSgafdYvR5JcjuC-4" value="&lt;font style=&quot;font-size: 16px&quot;&gt;funcA&lt;/font&gt;" style="rounded=1;whiteSpace=wrap;html=1;fillColor=#fff2cc;strokeColor=#d6b656;" vertex="1" parent="1">
          <mxGeometry x="220" y="50" width="120" height="60" as="geometry" />
        </mxCell>
        <mxCell id="ul2OTpSgafdYvR5JcjuC-9" style="edgeStyle=orthogonalEdgeStyle;rounded=0;orthogonalLoop=1;jettySize=auto;html=1;exitX=0.5;exitY=1;exitDx=0;exitDy=0;entryX=0.5;entryY=0;entryDx=0;entryDy=0;" edge="1" parent="1" source="ul2OTpSgafdYvR5JcjuC-5" target="ul2OTpSgafdYvR5JcjuC-6">
          <mxGeometry relative="1" as="geometry" />
        </mxCell>
        <mxCell id="ul2OTpSgafdYvR5JcjuC-5" value="&lt;span style=&quot;font-size: 16px&quot;&gt;funcA&lt;/span&gt;" style="rounded=1;whiteSpace=wrap;html=1;fillColor=#fff2cc;strokeColor=#d6b656;" vertex="1" parent="1">
          <mxGeometry x="220" y="160" width="120" height="60" as="geometry" />
        </mxCell>
        <mxCell id="ul2OTpSgafdYvR5JcjuC-10" style="edgeStyle=orthogonalEdgeStyle;rounded=0;orthogonalLoop=1;jettySize=auto;html=1;exitX=0.5;exitY=1;exitDx=0;exitDy=0;entryX=0.5;entryY=0;entryDx=0;entryDy=0;" edge="1" parent="1" source="ul2OTpSgafdYvR5JcjuC-6" target="ul2OTpSgafdYvR5JcjuC-7">
          <mxGeometry relative="1" as="geometry" />
        </mxCell>
        <mxCell id="ul2OTpSgafdYvR5JcjuC-6" value="&lt;span style=&quot;font-size: 16px&quot;&gt;funcA&lt;/span&gt;" style="rounded=1;whiteSpace=wrap;html=1;fillColor=#fff2cc;strokeColor=#d6b656;" vertex="1" parent="1">
          <mxGeometry x="220" y="270" width="120" height="60" as="geometry" />
        </mxCell>
        <mxCell id="ul2OTpSgafdYvR5JcjuC-7" value="&lt;span style=&quot;font-size: 16px&quot;&gt;funcA&lt;/span&gt;" style="rounded=1;whiteSpace=wrap;html=1;fillColor=#fff2cc;strokeColor=#d6b656;" vertex="1" parent="1">
          <mxGeometry x="220" y="380" width="120" height="60" as="geometry" />
        </mxCell>
        <mxCell id="ul2OTpSgafdYvR5JcjuC-11" value="" style="shape=flexArrow;endArrow=classic;html=1;fillColor=#dae8fc;strokeColor=#6c8ebf;" edge="1" parent="1">
          <mxGeometry width="50" height="50" relative="1" as="geometry">
            <mxPoint x="180" y="140" as="sourcePoint" />
            <mxPoint x="180" y="370" as="targetPoint" />
          </mxGeometry>
        </mxCell>
        <mxCell id="ul2OTpSgafdYvR5JcjuC-12" value="&lt;span style=&quot;font-weight: normal&quot;&gt;&lt;font style=&quot;font-size: 16px&quot;&gt;向下递归&lt;/font&gt;&lt;/span&gt;" style="text;strokeColor=none;fillColor=none;html=1;fontSize=24;fontStyle=1;verticalAlign=middle;align=center;" vertex="1" parent="1">
          <mxGeometry x="60" y="240" width="100" height="40" as="geometry" />
        </mxCell>
        <mxCell id="ul2OTpSgafdYvR5JcjuC-17" style="edgeStyle=orthogonalEdgeStyle;orthogonalLoop=1;jettySize=auto;html=1;exitX=0.5;exitY=0;exitDx=0;exitDy=0;strokeWidth=4;curved=1;" edge="1" parent="1" source="ul2OTpSgafdYvR5JcjuC-13" target="ul2OTpSgafdYvR5JcjuC-16">
          <mxGeometry relative="1" as="geometry" />
        </mxCell>
        <mxCell id="ul2OTpSgafdYvR5JcjuC-13" value="&lt;font style=&quot;font-size: 16px&quot;&gt;处理数据&lt;/font&gt;" style="rounded=1;whiteSpace=wrap;html=1;strokeWidth=2;fillWeight=4;hachureGap=8;hachureAngle=45;fillColor=#d5e8d4;sketch=1;strokeColor=#82b366;" vertex="1" parent="1">
          <mxGeometry x="390" y="380" width="120" height="60" as="geometry" />
        </mxCell>
        <mxCell id="ul2OTpSgafdYvR5JcjuC-14" value="" style="endArrow=none;dashed=1;html=1;strokeWidth=4;fillColor=#f8cecc;strokeColor=#b85450;" edge="1" parent="1">
          <mxGeometry width="50" height="50" relative="1" as="geometry">
            <mxPoint x="90" y="470" as="sourcePoint" />
            <mxPoint x="600" y="470" as="targetPoint" />
          </mxGeometry>
        </mxCell>
        <mxCell id="ul2OTpSgafdYvR5JcjuC-15" value="&lt;font style=&quot;font-size: 16px&quot;&gt;边界条件&lt;/font&gt;" style="rounded=1;whiteSpace=wrap;html=1;strokeWidth=2;fillWeight=4;hachureGap=8;hachureAngle=45;fillColor=#f8cecc;sketch=1;strokeColor=#b85450;" vertex="1" parent="1">
          <mxGeometry x="620" y="440" width="120" height="60" as="geometry" />
        </mxCell>
        <mxCell id="ul2OTpSgafdYvR5JcjuC-20" style="edgeStyle=orthogonalEdgeStyle;curved=1;orthogonalLoop=1;jettySize=auto;html=1;exitX=0.5;exitY=0;exitDx=0;exitDy=0;entryX=0.5;entryY=1;entryDx=0;entryDy=0;strokeWidth=4;" edge="1" parent="1" source="ul2OTpSgafdYvR5JcjuC-16" target="ul2OTpSgafdYvR5JcjuC-18">
          <mxGeometry relative="1" as="geometry" />
        </mxCell>
        <mxCell id="ul2OTpSgafdYvR5JcjuC-16" value="&lt;span style=&quot;font-size: 16px&quot;&gt;处理数据&lt;/span&gt;" style="rounded=1;whiteSpace=wrap;html=1;strokeWidth=2;fillWeight=4;hachureGap=8;hachureAngle=45;fillColor=#d5e8d4;sketch=1;strokeColor=#82b366;" vertex="1" parent="1">
          <mxGeometry x="440" y="270" width="120" height="60" as="geometry" />
        </mxCell>
        <mxCell id="ul2OTpSgafdYvR5JcjuC-21" style="edgeStyle=orthogonalEdgeStyle;curved=1;orthogonalLoop=1;jettySize=auto;html=1;exitX=0.5;exitY=0;exitDx=0;exitDy=0;entryX=0.5;entryY=1;entryDx=0;entryDy=0;strokeWidth=4;" edge="1" parent="1" source="ul2OTpSgafdYvR5JcjuC-18" target="ul2OTpSgafdYvR5JcjuC-19">
          <mxGeometry relative="1" as="geometry" />
        </mxCell>
        <mxCell id="ul2OTpSgafdYvR5JcjuC-18" value="&lt;span style=&quot;font-size: 16px&quot;&gt;处理数据&lt;/span&gt;" style="rounded=1;whiteSpace=wrap;html=1;strokeWidth=2;fillWeight=4;hachureGap=8;hachureAngle=45;fillColor=#d5e8d4;sketch=1;strokeColor=#82b366;" vertex="1" parent="1">
          <mxGeometry x="490" y="160" width="120" height="60" as="geometry" />
        </mxCell>
        <mxCell id="ul2OTpSgafdYvR5JcjuC-19" value="&lt;span style=&quot;font-size: 16px&quot;&gt;处理数据&lt;/span&gt;" style="rounded=1;whiteSpace=wrap;html=1;strokeWidth=2;fillWeight=4;hachureGap=8;hachureAngle=45;fillColor=#d5e8d4;sketch=1;strokeColor=#82b366;" vertex="1" parent="1">
          <mxGeometry x="540" y="50" width="120" height="60" as="geometry" />
        </mxCell>
        <mxCell id="ul2OTpSgafdYvR5JcjuC-23" value="" style="endArrow=classic;html=1;strokeWidth=6;dashed=1;fillColor=#dae8fc;strokeColor=#6c8ebf;" edge="1" parent="1">
          <mxGeometry width="50" height="50" relative="1" as="geometry">
            <mxPoint x="600" y="420" as="sourcePoint" />
            <mxPoint x="720" y="110" as="targetPoint" />
          </mxGeometry>
        </mxCell>
        <mxCell id="ul2OTpSgafdYvR5JcjuC-24" value="&lt;font style=&quot;font-size: 16px ; font-weight: normal&quot;&gt;向上回退&lt;/font&gt;" style="text;strokeColor=none;fillColor=none;html=1;fontSize=24;fontStyle=1;verticalAlign=middle;align=center;" vertex="1" parent="1">
          <mxGeometry x="690" y="240" width="100" height="40" as="geometry" />
        </mxCell>
      </root>
    </mxGraphModel>
  </diagram>
</mxfile>
